<svg xmlns="http://www.w3.org/2000/svg" width="405" height="405" fill="none" xmlns:v="https://vecta.io/nano"><path d="M254.138 131.625c25.312 18.225 62.775 19.845 77.557 35.842s6.885 46.373-12.96 62.168c-19.642 15.795-51.435 17.213-72.697 32.805-21.465 15.39-32.4 44.955-45.968 48.398-13.77 3.442-29.767-19.035-51.637-34.425-22.073-15.39-49.815-23.288-52.245-37.868-2.632-14.378 19.846-35.64 27.338-62.775 7.29-27.135-.405-60.143 10.328-83.227 10.53-23.085 39.69-36.247 60.75-25.312s34.222 45.967 59.535 64.395z" fill="#4f8a73"/></svg>